<svg height="512" viewBox="0 0 49 58" width="512" xmlns="http://www.w3.org/2000/svg"><g id="001---Chained-To-Phone" fill="none" transform="translate(-1)"><path id="Shape" d="m20 51.5c-.8 5.19-.63 4-.87 5.65-.0747694.4930381-.5013566.8556372-1 .85h-14.13c-.30167706.005506-.58971213-.1254947-.78382626-.3564905-.19411414-.2309959-.27355217-.5372882-.21617374-.8335095.6-3.15.28-1.55 1.27-6.81z" fill="#fdd7ad"/><path id="Shape" d="m20 51.5-.67 4.33-15.85-1.51.81-4.32z" fill="#f9c795"/><g fill="#547580"><path id="Shape" d="m27 53h-2.37c-1.6568542 0-3-1.3431458-3-3s1.3431458-3 3-3h2.37c1.6568542 0 3 1.3431458 3 3s-1.3431458 3-3 3zm-2.37-4c-.5522847 0-1 .4477153-1 1s.4477153 1 1 1h2.37c.5522847 0 1-.4477153 1-1s-.4477153-1-1-1z"/><path id="Shape" d="m33 53h-2c-1.6568542 0-3-1.3431458-3-3s1.3431458-3 3-3c1.79 0 2.63-.12 3.53.42.4491838.2652749.6189838.8312749.39 1.3 1.93-.15 1.29 4.28-1.92 4.28zm-2-4c-.5522847 0-1 .4477153-1 1s.4477153 1 1 1h2c.5522847 0 1-.4477153 1-1-.0462167-.2425891-.0183407-.4934729.08-.72-.52 0-.59-.28-1.08-.28z"/><path id="Shape" d="m36 45c-1.6568542 0-3-1.3431458-3-3v-2c0-1.6568542 1.3431458-3 3-3s3 1.3431458 3 3v2c0 1.6568542-1.3431458 3-3 3zm0-6c-.5522847 0-1 .4477153-1 1v2c0 .5522847.4477153 1 1 1s1-.4477153 1-1v-2c0-.5522847-.4477153-1-1-1z"/><path id="Shape" d="m36 51c-1.6568542 0-3-1.3431458-3-3v-2c0-1.6568542 1.3431458-3 3-3s3 1.3431458 3 3v2c0 1.6568542-1.3431458 3-3 3zm0-6c-.5522847 0-1 .4477153-1 1v2c0 .5522847.4477153 1 1 1s1-.4477153 1-1v-2c0-.5522847-.4477153-1-1-1z"/></g><path id="Shape" d="m41 32v4c0 1.1045695-.8954305 2-2 2h-20c-1.1045695 0-2-.8954305-2-2v-4z" fill="#35495e"/><path id="Shape" d="m41 2v30h-24v-30c0-1.1045695.8954305-2 2-2h20c1.1045695 0 2 .8954305 2 2z" fill="#67b9cc"/><path id="Shape" d="m29 39c-.5522847 0-1-.4477153-1-1v-2c0-.5522847.4477153-1 1-1s1 .4477153 1 1v2c0 .5522847-.4477153 1-1 1z" fill="#2c3e50"/><path id="Shape" d="m31 38c-2.2988769 2.8214594-5.6205744 4.6189147-9.24 5-.4487828.0541317-.8054475.4025972-.87.85l-.62 4.15-15.27-1.53 3-17.47v-3.71c-.00025496-1.6627141.46010125-3.2929981 1.33-4.71 8.85-14.43 7.22-11.79 9-14.64.3605411-.57699314.9896823-.93112051 1.67-.94 2 0 4 3.05 2.5 5.66-5.56 9.77-5.5 9.14-5.5 9.89v15.45c0 1.1045695.8954305 2 2 2z" fill="#fdd7ad"/><path id="Shape" d="m41 3.91 4.55-2.61c1.0824781-.6765488 2.5084512-.34747808 3.185.73500002s.3474781 2.50845115-.735 3.18499998l-7 4.66z" fill="#fdd7ad"/><path id="Shape" d="m21.12 54-19.2-1.83c-.30302062-.0137504-.58342104-.1642977-.7622947-.4092769-.17887367-.2449791-.23688356-.5579068-.1577053-.8507231l1.54-6.14c.11450139-.5055683.59635189-.839825 1.11-.77l18.43 1.84c.2812871.0188187.5415637.1554944.7167448.3763748.1751811.2208805.2489906.5054438.2032552.7836252l-.76 6.12c-.029982.2660282-.1653802.5089266-.3758874.6743251s-.4785437.2394846-.7441126.2056749z" fill="#3f5c6c"/><path id="Shape" d="m41 14.61v17.39h-24v-9.51c4.41-5.32 12-10.68 24-7.88z" fill="#2fa8cc"/><path id="Shape" d="m43 18h-5.5c-1.3807119 0-2.5-1.1192881-2.5-2.5s1.1192881-2.5 2.5-2.5h4.5c.5522847 0 1 .4477153 1 1z" fill="#fdd7ad"/><path id="Shape" d="m43 23h-6.5c-1.3807119 0-2.5-1.1192881-2.5-2.5s1.1192881-2.5 2.5-2.5h6.5z" fill="#f9c795"/><path id="Shape" d="m42 28h-4.5c-1.3807119 0-2.5-1.1192881-2.5-2.5s1.1192881-2.5 2.5-2.5h5.5v4c0 .5522847-.4477153 1-1 1z" fill="#fdd7ad"/></g></svg>