<svg id="Capa_1" enable-background="new 0 0 512 512" height="512" viewBox="0 0 512 512" width="512" xmlns="http://www.w3.org/2000/svg"><g><path d="m196 142.5c-20.711 0-37.5 16.789-37.5 37.5v132.801c0 10.167 7.906 18.826 18.066 19.187 10.667.379 19.434-8.156 19.434-18.738l37.5-170.75z" fill="#7587b3"/><path d="m316 142.5h-37.5l37.5 170.75c0 10.582 8.767 19.117 19.434 18.738 10.16-.361 18.066-9.02 18.066-19.187v-132.801c0-20.711-16.789-37.5-37.5-37.5z" fill="#524cb2"/><path d="m256 7.5v105c28.995 0 52.5-23.505 52.5-52.5s-23.505-52.5-52.5-52.5z" fill="#636da4"/><path d="m278.5 60c0-28.995-10.074-52.5-22.5-52.5-28.995 0-52.5 23.505-52.5 52.5s23.505 52.5 52.5 52.5c12.426 0 22.5-23.505 22.5-52.5z" fill="#7587b3"/><path d="m196 482c0 12.426 10.074 22.5 22.5 22.5s22.5-10.074 22.5-22.5v-172.5h30v172.5c0 12.426 10.074 22.5 22.5 22.5s22.5-10.074 22.5-22.5v-302c0-20.711-16.789-37.5-37.5-37.5h-45c-20.711 0-37.5 16.789-37.5 37.5z" fill="#636da4"/><path d="m397.982 440.408c5.858-5.858 15.355-5.858 21.213 0l72.125 50.912c-17.574 17.574-46.066 17.574-63.64 0l-29.698-29.698c-5.858-5.858-5.858-15.356 0-21.214z" fill="#ffb590"/><path d="m448.893 470.107-29.698-29.698c-5.858-5.858-5.858-15.355 0-21.213s15.355-5.858 21.213 0l-43.134-43.134c-5.858-5.858-5.858-15.355 0-21.213s15.355-5.858 21.213 0l72.832 72.832c17.574 17.574 17.574 46.066 0 63.64-5.857 5.857-24.852-3.641-42.426-21.214z" fill="#ffcea3"/><path d="m114.018 440.408c-5.858-5.858-15.355-5.858-21.213 0l-72.125 50.912c17.574 17.574 46.066 17.574 63.64 0l29.698-29.698c5.858-5.858 5.858-15.356 0-21.214z" fill="#ffb590"/><path d="m63.107 470.107 29.698-29.698c5.858-5.858 5.858-15.355 0-21.213s-15.355-5.858-21.213 0l43.134-43.134c5.858-5.858 5.858-15.355 0-21.213s-15.355-5.858-21.213 0l-72.833 72.831c-17.574 17.574-17.574 46.066 0 63.64 5.858 5.858 24.853-3.64 42.427-21.213z" fill="#ffcea3"/><path d="m397.982 71.592c5.858 5.858 15.355 5.858 21.213 0l72.125-50.912c-17.574-17.574-46.066-17.574-63.64 0l-29.698 29.698c-5.858 5.858-5.858 15.356 0 21.214z" fill="#ffb590"/><path d="m448.893 41.893-29.698 29.698c-5.858 5.858-5.858 15.355 0 21.213s15.355 5.858 21.213 0l-43.134 43.134c-5.858 5.858-5.858 15.355 0 21.213s15.355 5.858 21.213 0l72.833-72.831c17.574-17.574 17.574-46.066 0-63.64-5.858-5.858-24.853 3.64-42.427 21.213z" fill="#ffcea3"/><path d="m114.018 71.592c-5.858 5.858-15.355 5.858-21.213 0l-72.125-50.912c17.574-17.574 46.066-17.574 63.64 0l29.698 29.698c5.858 5.858 5.858 15.356 0 21.214z" fill="#ffb590"/><path d="m63.107 41.893 29.698 29.698c5.858 5.858 5.858 15.355 0 21.213s-15.355 5.858-21.213 0l43.134 43.134c5.858 5.858 5.858 15.355 0 21.213s-15.355 5.858-21.213 0l-72.833-72.831c-17.574-17.574-17.574-46.066 0-63.64 5.858-5.858 24.853 3.64 42.427 21.213z" fill="#ffcea3"/><path d="m256 120c33.084 0 60-26.916 60-60s-26.916-60-60-60-60 26.916-60 60 26.916 60 60 60zm0-105c24.813 0 45 20.187 45 45s-20.187 45-45 45-45-20.187-45-45 20.187-45 45-45z"/><path d="m241 82.5c4.142 0 7.5-3.358 7.5-7.5 0-4.136 3.364-7.5 7.5-7.5s7.5 3.364 7.5 7.5c0 4.142 3.358 7.5 7.5 7.5s7.5-3.358 7.5-7.5c0-12.407-10.093-22.5-22.5-22.5s-22.5 10.093-22.5 22.5c0 4.142 3.358 7.5 7.5 7.5z"/><path d="m316 135h-120c-24.813 0-45 20.187-45 45v132.801c0 14.458 11.113 26.178 25.3 26.682 4.296.159 8.448-.716 12.2-2.502v145.019c0 16.542 13.458 30 30 30s30-13.458 30-30v-165h15v165c0 16.542 13.458 30 30 30s30-13.458 30-30v-145.02c3.471 1.65 7.284 2.521 11.234 2.521.321 0 .644-.006.966-.018 14.187-.504 25.3-12.225 25.3-26.682v-132.801c0-24.813-20.187-45-45-45zm30 177.801c0 6.234-4.86 11.479-10.833 11.692-3.096.103-6.013-1.008-8.228-3.146-2.218-2.14-3.439-5.016-3.439-8.097v-133.25c0-4.142-3.358-7.5-7.5-7.5s-7.5 3.358-7.5 7.5v302c0 8.271-6.729 15-15 15s-15-6.729-15-15v-172.5c0-4.142-3.358-7.5-7.5-7.5h-30c-4.142 0-7.5 3.358-7.5 7.5v172.5c0 8.271-6.729 15-15 15s-15-6.729-15-15v-257c0-4.142-3.358-7.5-7.5-7.5s-7.5 3.358-7.5 7.5v88.25c0 3.081-1.221 5.957-3.439 8.097-2.216 2.139-5.138 3.257-8.228 3.146-5.973-.213-10.833-5.458-10.833-11.692v-132.801c0-16.542 13.458-30 30-30h120c16.542 0 30 13.458 30 30z"/><path d="m196 172.5c-4.142 0-7.5 3.358-7.5 7.5v15c0 4.142 3.358 7.5 7.5 7.5s7.5-3.358 7.5-7.5v-15c0-4.142-3.358-7.5-7.5-7.5z"/><path d="m423.791 349.545c-8.772-8.772-23.047-8.772-31.82 0-8.772 8.773-8.772 23.047 0 31.82l28.132 28.132c-2.248 1.071-4.354 2.536-6.212 4.395-4.068 4.068-6.25 9.319-6.545 14.657-5.543.299-10.712 2.601-14.668 6.557-4.25 4.25-6.59 9.9-6.59 15.91s2.341 11.661 6.59 15.91l29.698 29.699c10.235 10.235 23.679 15.353 37.123 15.353s26.888-5.118 37.123-15.353c9.916-9.916 15.377-23.1 15.377-37.123s-5.461-27.207-15.377-37.123zm62.226 136.472c-14.622 14.621-38.412 14.621-53.033 0l-29.698-29.699c-1.417-1.416-2.197-3.299-2.197-5.303 0-2.003.78-3.887 2.197-5.303 1.416-1.417 3.299-2.197 5.303-2.197 2.003 0 3.887.78 5.303 2.197 2.929 2.929 7.678 2.929 10.606 0 1.464-1.464 2.197-3.384 2.197-5.303s-.732-3.839-2.197-5.303c-2.924-2.924-2.924-7.683 0-10.607 1.417-1.417 3.3-2.197 5.303-2.197s3.887.78 5.304 2.197c2.929 2.929 7.678 2.929 10.606 0 2.929-2.929 2.929-7.678 0-10.606-.025-.025-43.133-43.133-43.133-43.133-2.924-2.924-2.924-7.683 0-10.607 2.926-2.924 7.683-2.923 10.607 0l72.832 72.832c7.083 7.081 10.983 16.498 10.983 26.515s-3.9 19.434-10.983 26.517z"/><path d="m120.029 349.545c-8.772-8.772-23.047-8.773-31.82 0l-72.832 72.832c-9.916 9.916-15.377 23.1-15.377 37.123s5.461 27.207 15.377 37.123c10.235 10.235 23.679 15.353 37.123 15.353s26.888-5.118 37.123-15.353l29.698-29.698c8.773-8.773 8.773-23.047 0-31.82-3.956-3.956-9.125-6.257-14.668-6.557-.295-5.337-2.477-10.588-6.545-14.657-1.858-1.858-3.964-3.324-6.212-4.395l28.133-28.132c8.772-8.772 8.772-23.046 0-31.819zm-10.607 21.213-43.109 43.108c-2.954 2.954-2.954 7.703-.025 10.631 2.928 2.93 7.677 2.929 10.606 0 1.417-1.417 3.3-2.197 5.304-2.197 2.003 0 3.887.78 5.303 2.197 2.924 2.924 2.924 7.683 0 10.607-1.464 1.464-2.197 3.384-2.197 5.303s.732 3.839 2.197 5.303c2.929 2.929 7.678 2.929 10.606 0 1.417-1.417 3.3-2.197 5.303-2.197s3.887.78 5.303 2.197c2.925 2.924 2.925 7.683 0 10.607l-29.698 29.698c-14.621 14.621-38.412 14.621-53.033 0-7.082-7.081-10.982-16.498-10.982-26.515s3.9-19.434 10.983-26.517l72.832-72.832c1.462-1.462 3.383-2.193 5.304-2.193 1.92 0 3.841.731 5.303 2.193 2.924 2.925 2.924 7.683 0 10.607z"/><path d="m391.971 162.455c4.386 4.386 10.148 6.58 15.91 6.58s11.523-2.193 15.91-6.58l72.832-72.832c9.916-9.916 15.377-23.1 15.377-37.123s-5.461-27.207-15.377-37.123c-20.47-20.47-53.776-20.47-74.246 0l-29.698 29.698c-4.25 4.25-6.59 9.9-6.59 15.91s2.34 11.66 6.59 15.91c3.956 3.956 9.125 6.257 14.668 6.557.295 5.337 2.477 10.588 6.545 14.657 1.858 1.858 3.964 3.324 6.212 4.395l-28.133 28.132c-8.772 8.772-8.772 23.046 0 31.819zm10.607-21.213 43.109-43.108c2.954-2.954 2.954-7.703.025-10.631-2.929-2.929-7.678-2.929-10.606 0-1.417 1.417-3.3 2.197-5.304 2.197-2.003 0-3.887-.78-5.303-2.197-2.924-2.924-2.924-7.683 0-10.607 1.464-1.464 2.197-3.384 2.197-5.303s-.732-3.839-2.197-5.303c-2.929-2.929-7.678-2.929-10.606 0-1.417 1.417-3.3 2.197-5.303 2.197s-3.887-.78-5.303-2.197-2.197-3.3-2.197-5.303.78-3.887 2.197-5.303l29.698-29.699c14.621-14.621 38.412-14.621 53.033 0 7.082 7.081 10.982 16.498 10.982 26.515s-3.9 19.434-10.983 26.517l-72.832 72.832c-2.924 2.924-7.683 2.924-10.606 0-2.925-2.925-2.925-7.683-.001-10.607z"/><path d="m120.029 130.635-28.132-28.132c2.248-1.071 4.354-2.536 6.212-4.395 4.068-4.068 6.25-9.319 6.545-14.657 5.543-.299 10.712-2.601 14.668-6.557 4.25-4.25 6.59-9.9 6.59-15.91s-2.341-11.661-6.59-15.91l-29.699-29.697c-20.47-20.47-53.776-20.47-74.246 0-9.916 9.916-15.377 23.1-15.377 37.123s5.461 27.207 15.377 37.123l72.832 72.832c4.386 4.386 10.148 6.58 15.91 6.58s11.524-2.193 15.911-6.58c8.771-8.773 8.771-23.047-.001-31.82zm-10.607 21.214c-2.925 2.925-7.682 2.924-10.607 0l-72.832-72.832c-7.083-7.083-10.983-16.5-10.983-26.517s3.9-19.434 10.983-26.517c7.312-7.312 16.913-10.966 26.517-10.966 9.602 0 19.207 3.656 26.517 10.966l29.698 29.699c1.417 1.416 2.197 3.299 2.197 5.303 0 2.003-.78 3.887-2.197 5.303-1.416 1.417-3.299 2.197-5.303 2.197-2.003 0-3.887-.78-5.303-2.197-2.929-2.929-7.678-2.929-10.606 0-1.464 1.464-2.197 3.384-2.197 5.303s.732 3.839 2.197 5.303c2.924 2.924 2.924 7.683 0 10.607-1.417 1.417-3.3 2.197-5.303 2.197s-3.887-.78-5.304-2.197c-2.929-2.929-7.678-2.929-10.606 0-2.929 2.929-2.929 7.678 0 10.606.025.025 43.133 43.133 43.133 43.133 2.923 2.926 2.923 7.684-.001 10.609z"/></g></svg>