<?xml version="1.0" encoding="iso-8859-1"?>
<!-- Generator: Adobe Illustrator 19.0.0, SVG Export Plug-In . SVG Version: 6.00 Build 0)  -->
<svg version="1.1" id="Capa_1" xmlns="http://www.w3.org/2000/svg" xmlns:xlink="http://www.w3.org/1999/xlink" x="0px" y="0px"
	 viewBox="0 0 512 512" style="enable-background:new 0 0 512 512;" xml:space="preserve">
<polygon style="fill:#B5EFFF;" points="328.161,486.688 184.172,486.688 242.114,235.807 266.81,235.807 "/>
<polygon style="fill:#80DBFF;" points="328.161,486.688 256.541,486.688 256.541,235.807 266.81,235.807 "/>
<path style="fill:#B5EFFF;" d="M78.232,284.742c-8.283,0-14.998-6.715-14.998-14.998v-51.312c0-8.283,6.715-14.998,14.998-14.998
	s14.998,6.715,14.998,14.998v51.312C93.23,278.027,86.515,284.742,78.232,284.742z"/>
<path style="fill:#80DBFF;" d="M433.767,237.089c-8.283,0-14.998-6.715-14.998-14.998V166.78c0-8.283,6.715-14.998,14.998-14.998
	c8.283,0,14.998,6.715,14.998,14.998v55.311C448.764,230.374,442.049,237.089,433.767,237.089z"/>
<path style="fill:#5A6384;" d="M349.647,471.691c0,8.289-6.709,14.998-14.998,14.998H177.423c-8.289,0-14.998-6.709-14.998-14.998
	c0-8.279,6.709-14.998,14.998-14.998H334.65C342.938,456.693,349.647,463.413,349.647,471.691z"/>
<path style="fill:#FFB13B;" d="M78.232,76.964C35.095,76.964,0,112.06,0,155.196s35.095,78.232,78.232,78.232
	s78.232-35.096,78.232-78.232S121.37,76.964,78.232,76.964z"/>
<path style="fill:#FFFFFF;" d="M52.043,180.241c0-0.18,0.059-0.507,0.179-0.984l16.641-54.578c0.477-1.49,1.566-2.64,3.266-3.444
	c1.7-0.805,3.652-1.208,5.86-1.208c2.206,0,4.16,0.403,5.86,1.208c1.7,0.806,2.788,1.955,3.267,3.444l16.73,54.578
	c0.119,0.478,0.179,0.805,0.179,0.984c0,1.552-0.97,2.894-2.908,4.025c-1.939,1.134-3.952,1.7-6.039,1.7
	c-2.566,0-4.086-0.864-4.562-2.595l-3.042-11.184h-18.88l-3.042,11.185c-0.478,1.73-2,2.595-4.563,2.595
	c-2.089,0-4.101-0.566-6.039-1.7C53.012,183.135,52.043,181.793,52.043,180.241z M71.458,161.452h13.063l-6.531-23.978
	L71.458,161.452z"/>
<path style="fill:#F45607;" d="M433.767,25.312c-43.138,0-78.232,35.096-78.232,78.232c0,43.139,35.096,78.233,78.232,78.233
	c43.139,0,78.233-35.096,78.233-78.233C512,60.407,476.904,25.312,433.767,25.312z"/>
<path style="fill:#FFFFFF;" d="M412.88,131.951V75.047c0-1.371,0.596-2.43,1.79-3.177c1.192-0.745,2.624-1.118,4.294-1.118h18.341
	c11.93,0,17.894,5.31,17.894,15.927c0,7.157-2.536,11.84-7.605,14.047c3.043,1.134,5.338,2.76,6.89,4.876
	c1.551,2.118,2.326,5.265,2.326,9.439v1.879c0,6.681-1.626,11.557-4.876,14.629c-3.252,3.073-7.62,4.607-13.107,4.607h-19.862
	c-1.85,0-3.325-0.417-4.429-1.253C413.431,134.069,412.88,133.085,412.88,131.951z M426.748,95.358h9.395
	c1.611,0,2.863-0.611,3.758-1.835c0.895-1.222,1.342-2.669,1.342-4.339c0-1.669-0.447-3.132-1.342-4.384
	c-0.896-1.253-2.147-1.879-3.758-1.879h-9.395V95.358z M426.748,123.989h8.947c4.771,0,7.158-2.743,7.158-8.231v-1.432
	c0-5.487-2.387-8.231-7.158-8.231h-8.947V123.989z"/>
<path style="fill:#5A6384;" d="M484.737,233.677l-228.196,29.746L32.215,292.668c-0.66,0.09-1.31,0.13-1.96,0.13
	c-7.419,0-13.868-5.509-14.858-13.058c-1.07-8.219,4.719-15.748,12.938-16.817l228.206-29.746l224.326-29.246
	c8.209-1.07,15.738,4.719,16.807,12.938C498.745,225.079,492.956,232.608,484.737,233.677z"/>
<g>
	<path style="fill:#445175;" d="M349.647,471.691c0,8.289-6.709,14.998-14.998,14.998h-78.108v-29.995h78.108
		C342.938,456.693,349.647,463.413,349.647,471.691z"/>
	<path style="fill:#445175;" d="M484.737,233.677l-228.196,29.746v-30.245l224.326-29.246c8.209-1.07,15.738,4.719,16.807,12.938
		C498.745,225.079,492.956,232.608,484.737,233.677z"/>
</g>
<g>
</g>
<g>
</g>
<g>
</g>
<g>
</g>
<g>
</g>
<g>
</g>
<g>
</g>
<g>
</g>
<g>
</g>
<g>
</g>
<g>
</g>
<g>
</g>
<g>
</g>
<g>
</g>
<g>
</g>
</svg>
