<svg id="Capa_1" enable-background="new 0 0 512 512" height="512" viewBox="0 0 512 512" width="512" xmlns="http://www.w3.org/2000/svg"><g><g><path d="m76.86 288.984h358.279v179.078h-358.279z" fill="#7eaee3"/><path d="m423.005 7.5h-334.01c-35.015 0-63.4 28.385-63.4 63.4v186.009c0 35.015 28.385 63.4 63.4 63.4h334.01c35.015 0 63.4-28.385 63.4-63.4v-186.009c0-35.015-28.385-63.4-63.4-63.4z" fill="#f9f097"/><path d="m88.166 113.783c0-38.123 8.803-74.185 24.471-106.283h-23.642c-35.015 0-63.4 28.385-63.4 63.4v186.009c0 35.015 28.385 63.4 63.4 63.4h114.44c-69.17-42.74-115.269-119.244-115.269-206.526z" fill="#f9d888"/><path d="m420.654 219.065.006-.011c14.164-24.386 7.039-55.575-16.308-71.392l.009-.117c2.128-28.071-17.793-53.016-45.64-57.149l-.123-.018-.011-.029c-10.205-26.279-39.001-40.185-65.927-31.837l-.019.006-.06-.056c-20.61-19.194-52.55-19.194-73.16 0l-.06.056-.019-.006c-26.927-8.348-55.723 5.557-65.928 31.837l-.011.029-.123.018c-27.846 4.133-47.768 29.078-45.64 57.149l.009.117h-.001c-23.348 15.818-30.472 47.006-16.308 71.393l.006.011h329.308z" fill="#475066"/><circle cx="403.645" cy="244.078" fill="#c7856a" r="35.987"/><path d="m207.983 56.303c-23.264-1.989-45.793 11.444-54.57 34.045l-.011.029-.123.019c-27.846 4.133-47.768 29.078-45.64 57.148l.009.118h-.001c-23.347 15.818-30.471 47.006-16.307 71.393l.006.011h54.277c4.73-61.093 24.518-124.543 62.36-162.763z" fill="#3b4556"/><path d="m361.385 431.625c0-43.12-34.956-66.141-34.956-66.141h-140.855s-34.956 23.02-34.956 66.141z" fill="#f9f097"/><path d="m210.027 365.484h-24.453s-34.956 23.02-34.956 66.141h16.398c9.144-25.3 23.999-47.865 43.011-66.141z" fill="#f9d888"/><path d="m393.63 194.468c-7.419-22.896-28.966-38.243-53.034-38.243h-169.184c-24.367 0-45.909 15.792-53.29 39.014-4.444 13.982-6.819 28.885-6.766 44.351.277 79.793 64.851 144.131 144.644 144.13 79.884-.001 144.642-64.76 144.642-144.644.002-15.567-2.459-30.559-7.012-44.608z" fill="#da9d81"/><path d="m425.376 431.625h-338.752c-17.442 0-31.582 14.14-31.582 31.582v41.293h401.916v-41.293c0-17.442-14.14-31.582-31.582-31.582z" fill="#e8e8e8"/><path d="m156.722 490.628c0-20.716 3.636-40.583 10.294-59.002h-80.392c-17.442 0-31.582 14.14-31.582 31.582v41.292h102.232c-.362-4.577-.552-9.202-.552-13.872z" fill="#e0e0e0"/><path d="m163.602 408.005c-18.682 0-33.826 15.145-33.826 33.826 0 9.771 7.921 17.692 17.692 17.692h32.27c9.771 0 17.692-7.921 17.692-17.692-.002-18.681-15.147-33.826-33.828-33.826z" fill="#da9d81"/><path d="m348.398 408.005c18.682 0 33.826 15.145 33.826 33.826 0 9.771-7.921 17.692-17.692 17.692h-32.27c-9.771 0-17.692-7.921-17.692-17.692.002-18.681 15.147-33.826 33.828-33.826z" fill="#da9d81"/><path d="m186.125 365.791c-26.031-32.18-41.632-73.144-41.632-117.757 0-29.276 3.516-60.183 10.897-89.458-17.392 5.209-31.561 18.712-37.266 36.662-1.392 4.379-2.581 8.85-3.556 13.398-2.019-.352-4.093-.545-6.212-.545-19.875 0-35.987 16.112-35.987 35.987s16.112 35.987 35.987 35.987c2.956 0 5.826-.364 8.575-1.036 10.667 37.31 35.911 68.4 69.194 86.762z" fill="#c7856a"/><g fill="#fff"><ellipse cx="175.315" cy="267.688" rx="29.771" ry="23.708"/><ellipse cx="336.685" cy="267.827" rx="29.771" ry="23.708"/></g><path d="m176.305 410.481c-3.923-1.591-8.209-2.476-12.704-2.476-18.682 0-33.826 15.145-33.826 33.826 0 9.771 7.921 17.692 17.692 17.692h12.038c3.146-17.388 8.888-33.871 16.8-49.042z" fill="#c7856a"/></g><g><path d="m192.68 252.229h.006c4.14 0 7.497-3.354 7.5-7.494l.009-11.882c.003-4.142-3.352-7.503-7.494-7.506-.002 0-.004 0-.006 0-4.14 0-7.497 3.354-7.5 7.494l-.009 11.882c-.004 4.143 3.352 7.504 7.494 7.506z"/><path d="m319.349 252.354h.005c4.14 0 7.497-3.354 7.5-7.495l.009-11.882c.003-4.142-3.353-7.502-7.495-7.505-.002 0-.003 0-.005 0-4.14 0-7.497 3.354-7.5 7.494l-.009 11.882c-.003 4.142 3.353 7.502 7.495 7.506z"/><path d="m239.311 257.553 33.396.029h.006c4.139 0 7.497-3.354 7.5-7.494.003-4.142-3.352-7.503-7.494-7.506l-33.396-.029c-.002 0-.004 0-.006 0-4.139 0-7.497 3.354-7.5 7.494-.003 4.141 3.352 7.502 7.494 7.506z"/><path d="m69.361 325.022v103.135c-12.914 6.386-21.818 19.695-21.818 35.05v41.293c0 4.142 3.358 7.5 7.5 7.5h401.916c4.142 0 7.5-3.358 7.5-7.5v-41.292c0-15.355-8.905-28.664-21.818-35.05v-103.136c29.57-8.538 51.266-35.831 51.266-68.113v-118.639c0-4.142-3.358-7.5-7.5-7.5s-7.5 3.358-7.5 7.5v118.639c0 27.308-19.687 50.089-45.61 54.935-3.623.676-7.081.966-10.29.966h-33.898c4.502-8.106 8.242-16.589 11.185-25.374 41.824 3.361 63.13-48.844 32.015-76.059 8.409-25.182-.725-52.441-20.293-67.406.222-28.709-19.947-54.08-48.11-60.244-.765-1.625-1.597-3.205-2.489-4.735-11.16-19.127-31.94-30.634-53.741-30.366-4.36.053-8.761.578-13.134 1.607-22.326-18.106-54.693-18.117-77.071.001-14.007-3.297-28.71-1.508-41.701 5.092-11.815 6.003-21.725 15.792-27.665 28.399-28.117 6.149-48.351 31.497-48.115 60.248-.008.006-.016.013-.024.02-20.336 15.941-28.432 42.98-20.267 67.385-9.513 8.32-14.827 20.312-14.827 32.702 0 25.222 21.521 45.281 46.778 43.361 2.926 8.783 6.664 17.267 11.157 25.37h-33.812c-3.287 0-6.693-.297-10.298-.967-25.919-4.849-45.602-27.629-45.602-54.934v-40.706c0-4.142-3.358-7.5-7.5-7.5s-7.5 3.358-7.5 7.5v40.706c0 32.281 21.696 59.574 51.266 68.112zm353.644 2.787c1.613 0 4.04-.114 4.635-.154v96.536c-.036-.002-.073-.001-.109-.003-.714-.039-1.432-.062-2.155-.062h-39.622c-4.451-9.442-12.228-16.674-21.647-20.524-6.194-17.608-17.072-30.094-24.772-37.249 15.471-10.133 29.172-23.117 40.262-38.543h43.408zm-257.566 72.736c6.528-13.13 15.833-22.009 20.812-26.143 22.01 11.355 45.954 16.817 69.75 16.817 23.473 0 47.627-5.501 69.7-16.884 4.961 4.081 14.311 12.938 20.877 26.209-15.309.651-29.02 9.761-35.536 23.581h-110.085c-6.345-13.46-19.806-22.877-35.518-23.58zm24.488 41.287c0 5.628-4.58 10.191-10.191 10.191h-32.27c-5.62 0-10.191-4.572-10.191-10.191 0-14.549 11.848-26.326 26.319-26.326h.007.01c14.19 0 26.291 11.459 26.315 26.288.001.012.001.025.001.038zm158.479-26.326c14.205 0 26.292 11.504 26.317 26.288 0 .013.001.025.001.039 0 5.671-4.659 10.191-10.191 10.191h-32.27c-5.62 0-10.191-4.572-10.191-10.191 0-14.493 11.78-26.327 26.334-26.327zm83.726-171.427c0 15.075-11.923 27.987-27.688 28.467 1.885-8.398 3.231-18.072 3.587-27.923.354-9.796-.198-19.319-1.676-28.903 14.632 1.387 25.777 13.773 25.777 28.359zm-352.265 0c0-14.634 11.182-26.973 25.774-28.359-.176 3.061-4.922 26.283 1.881 56.825-15.429-.437-27.655-13.15-27.655-28.466zm28.904-43.485c-5.521-.04-10.948.968-15.79 2.803-4.658-18.201 2.298-38.293 18.874-49.525 2.225-1.507 3.474-4.09 3.272-6.77l-.009-.123c-1.252-16.521 6.508-31.89 19.221-41.032 15.024-10.803 23.092-5.223 26.066-12.882 3.416-8.803 9.581-16.533 17.764-21.858 19.849-12.976 38.765-5.466 40.066-5.275 2.261.332 4.61-.409 6.296-1.98 17.647-16.434 45.292-16.433 63.01.068 1.97 1.825 4.781 2.45 7.338 1.657 19.94-6.181 41.253 1.981 52.31 18.848 1.852 2.826 3.291 5.671 4.405 8.539.97 2.529 3.228 4.342 5.914 4.736.43.108 8.149.879 16.559 5.812 14.813 8.685 24.182 25.339 22.814 43.374-.143 3.084 1.11 5.429 3.264 6.887 15.837 10.742 23.714 30.289 18.872 49.524-5.169-1.955-10.828-2.874-15.789-2.802-1.049-4.022-2.202-7.582-2.464-8.438-8.536-26.342-32.996-43.431-60.169-43.431h-169.183c-14.819 0-28.65 5.077-39.604 13.839-13.347 10.674-19.22 23.424-23.037 38.029zm16.484-3.032c.005-.017.01-.035.016-.052 6.423-20.208 24.966-33.786 46.142-33.786h169.184c21.046 0 39.492 13.284 45.899 33.056.002.006.003.012.005.018 28.542 88.135-37.255 179.422-130.499 179.422-62.113 0-115.326-41.408-131.864-99.251-7.433-25.994-6.973-53.928 1.117-79.407zm-40.894 130.093c.664.045 3.052.154 4.634.154h43.319c11.219 15.584 25.045 28.609 40.286 38.62-7.697 7.176-18.536 19.65-24.703 37.17-9.421 3.85-17.199 11.083-21.651 20.526h-39.622c-.723 0-1.441.023-2.155.062-.036.002-.073.001-.109.003v-96.535zm2.263 111.47h35.739c-.005.076-.003.152-.007.228-.049.821-.081 1.646-.081 2.479 0 13.891 11.301 25.191 25.192 25.191h32.27c13.891 0 25.192-11.301 25.192-25.191 0-.023-.002-.045-.002-.068-.001-.802-.031-1.597-.078-2.388-.005-.083-.003-.167-.008-.25h102.32c-.005.076-.003.152-.007.228-.049.821-.081 1.646-.081 2.479 0 13.891 11.301 25.191 25.192 25.191h32.27c13.89 0 25.192-11.3 25.192-25.191 0-.023-.002-.045-.002-.068-.001-.802-.031-1.597-.078-2.388-.005-.083-.003-.167-.008-.25h35.739c13.258 0 24.082 10.795 24.082 24.082v33.791h-386.918v-33.792c0-13.25 10.785-24.083 24.082-24.083z"/><path d="m25.595 193.703c4.142 0 7.5-3.358 7.5-7.5v-115.303c0-30.823 25.077-55.9 55.9-55.9h334.01c30.824 0 55.9 25.077 55.9 55.9v37.37c0 4.142 3.358 7.5 7.5 7.5s7.5-3.358 7.5-7.5v-37.37c0-39.094-31.806-70.9-70.9-70.9h-334.01c-39.094 0-70.9 31.806-70.9 70.9v115.303c0 4.142 3.358 7.5 7.5 7.5z"/></g></g></svg>