<svg id="Layer_1" enable-background="new 0 0 509.625 509.625" height="512" viewBox="0 0 509.625 509.625" width="512" xmlns="http://www.w3.org/2000/svg"><g><g><g><g><g><g><path d="m266.641 100.577-.499 3.435c-1.536 10.583 6.671 20.068 17.365 20.068 10.989 0 19.274-9.986 17.246-20.786l-.51-2.717z" fill="#ffb69e"/><g id="XMLID_774_"><path d="m307.57 449.232c-11.341 0-20.534-9.193-20.534-20.534v-164.133c0-11.341 9.193-20.534 20.534-20.534s20.534 9.193 20.534 20.534v164.132c0 11.341-9.194 20.535-20.534 20.535z" fill="#414b82"/></g><g id="XMLID_773_"><path d="m257.629 449.232c-11.341 0-20.534-9.193-20.534-20.534v-164.133c0-11.341 9.193-20.534 20.534-20.534s20.534 9.193 20.534 20.534v164.132c0 11.341-9.193 20.535-20.534 20.535z" fill="#5f6e9b"/></g><ellipse cx="282.603" cy="53.808" fill="#ffb69e" rx="35.465" ry="35.465" transform="matrix(.055 -.999 .999 .055 213.249 333.003)"/><path d="m195.477 183.828v82.842c0 9.451 7.661 17.112 17.112 17.112s17.112-7.661 17.112-17.112v-82.842l-13.918-10.884z" fill="#ffb69e"/><path d="m327.945 134.801h.59c3.586 0 6.867 2.956 6.903 6.21 0 0 30.146-2.257 30.145-2.285-.111-22.218-14.483-38.149-37.048-38.149h-28.292c.035 8.834-8.218 16.248-16.831 16.248-9.231 0-16.1-7.388-16.771-16.248h-29.971c-22.602 0-41.081 18.075-41.193 40.292v.086 42.873h34.224v-42.811c.032-3.256 3.347-6.216 6.969-6.216h.425v129.764h91.009z" fill="#e64937"/></g></g></g></g><g><g><g><g><path d="m406.604 100.577-.499 3.435c-1.536 10.583 6.671 20.068 17.365 20.068 10.989 0 19.274-9.986 17.246-20.786l-.51-2.717z" fill="#ffb69e"/><path d="m475.401 183.828v82.842c0 9.451 7.661 17.112 17.112 17.112s17.112-7.661 17.112-17.112v-82.842l-17.112-4.536z" fill="#ffb69e"/><g id="XMLID_772_"><path d="m447.533 449.232c-11.341 0-20.534-9.193-20.534-20.534v-164.133c0-11.341 9.194-20.534 20.534-20.534s20.534 9.193 20.534 20.534v164.132c0 11.341-9.194 20.535-20.534 20.535z" fill="#414b82"/></g><g id="XMLID_751_"><path d="m397.592 449.232c-11.341 0-20.534-9.193-20.534-20.534v-164.133c0-11.341 9.194-20.534 20.534-20.534s20.534 9.193 20.534 20.534v164.132c0 11.341-9.193 20.535-20.534 20.535z" fill="#5f6e9b"/></g><ellipse cx="422.566" cy="53.808" fill="#ffb69e" rx="35.465" ry="35.465" transform="matrix(.055 -.999 .999 .055 345.472 472.752)"/><path d="m335.44 183.828v82.842c0 9.451 7.661 17.112 17.112 17.112s17.112-7.661 17.112-17.112v-82.842l-13.918-10.884z" fill="#ffb69e"/><path d="m509.625 140.87c-.111-22.218-18.561-40.292-41.126-40.292h-28.292c.035 8.834-8.218 16.248-16.831 16.248-9.231 0-16.1-7.388-16.771-16.248h-29.971c-22.602 0-41.081 18.075-41.193 40.292v.086 42.872h34.224v-42.81c.032-3.257 3.347-6.216 6.969-6.216h.425v129.764h91.009l-.159-129.764h.59c3.586 0 6.867 2.956 6.903 6.211v42.816h34.224v-42.872c-.001-.03-.001-.059-.001-.087z" fill="#64afff"/></g></g></g></g></g><g><path d="m179.636 473.795-31.932-111.089c-1.437-4.998-1.272-10.321.472-15.221l31.931-89.723c4.609-12.95 18.841-19.712 31.793-15.103 12.95 4.609 19.711 18.843 15.103 31.793l-29.25 82.188 29.722 103.402c3.797 13.211-3.833 26.999-17.044 30.796-13.184 3.791-26.99-3.805-30.795-17.043z" fill="#748488"/></g><g><path d="m83.965 468.683-7.399-104.137c-.246-3.459.234-6.932 1.409-10.195l42.073-116.855c4.657-12.933 18.915-19.644 31.848-14.986 12.933 4.656 19.643 18.916 14.986 31.848l-40.291 111.906 7.026 98.891c.974 13.711-9.351 25.616-23.062 26.59-13.674.974-25.613-9.315-26.59-23.062z" fill="#55696e"/></g><path d="m155.387 282.773 71.272-25.925-58.482-155.68c-6.339-16.603-24.937-24.923-41.54-18.583l-53.609 20.469c-16.603 6.339-24.923 24.937-18.583 41.54l42.835 112.185c8.867 23.224 34.882 34.862 58.107 25.994z" fill="#ffda52"/><circle cx="61.538" cy="63.307" fill="#ba6746" r="45.483"/><g><path d="m80.456 149.102-3.018 6.576-40.756-48.961c-7.328-8.804-20.406-10-29.209-2.671-8.804 7.329-10 20.406-2.671 29.209l61.816 74.262c9.774 11.741 28.436 9.228 34.791-4.618l16.206-35.312-10.58-24.656z" fill="#ba6746"/></g><g><path d="m125.291 101.135c-10.41-4.777-22.723-.212-27.501 10.199l-17.334 37.768 37.158 18.484 17.876-38.95c4.777-10.411.212-22.724-10.199-27.501z" fill="#f2c41b"/></g></g></svg>