<svg id="Capa_1" enable-background="new 0 0 512 512" height="512" viewBox="0 0 512 512" width="512" xmlns="http://www.w3.org/2000/svg"><g><path d="m512 512h-30v-91l30 30z" fill="#1e2533"/><path d="m150 271v-76c0-19.53-12.578-36.024-30-42.237-4.715-1.681-9.716-2.763-15-2.763-24.814 0-45 20.186-45 45v106c0 33.091 26.909 60 60 60l36.553 15h69.447v-105z" fill="#ff7f40"/><path d="m226 376v-105h-76v-76c0-19.53-12.578-36.024-30-42.237v208.237l36.553 15z" fill="#f25a3c"/><path d="m120 361h-105v75h105 106v-75z" fill="#f3f5f9"/><path d="m120 361h106v75h-106z" fill="#e1e6f0"/><path d="m120 421h-105v30h105 91l30-30z" fill="#353d4d"/><path d="m241 421h-121v30h91z" fill="#1e2533"/><g><path d="m301 120h-69.272l30-60h-20.728v-30h69.272l-30 60h20.728z" fill="#353d4d"/></g><g><path d="m451 120h-103.022l60-90h-46.978v-30h103.022l-60 90h46.978z" fill="#353d4d"/></g><circle cx="120" cy="90" fill="#ffd9b3" r="60"/><path d="m180 90c0-33.091-26.909-60-60-60v120c33.091 0 60-26.909 60-60z" fill="#fb9"/><path d="m0 226h30v286h-30z" fill="#353d4d"/><g><path d="m512 451h-301v-210h196c57.891 0 105 47.109 105 105z" fill="#ffbe40"/></g></g></svg>